<svg width="24" height="24" viewBox="0 0 24 24" fill="none" xmlns="http://www.w3.org/2000/svg">
<path d="M14 2.35469V4.7998C14 5.91991 14 6.47996 14.218 6.90778C14.4097 7.28411 14.7157 7.59007 15.092 7.78182C15.5198 7.9998 16.0799 7.9998 17.2 7.9998H20.4397M14 2.35469C13.7426 2.2522 13.4768 2.17116 13.2053 2.11256C12.6839 2 12.1325 2 11.0296 2C8.20962 2 6.79961 2 5.73005 2.54497C4.78924 3.02433 4.02433 3.78924 3.54497 4.73005C3 5.79961 3 7.19974 3 10V14C3 16.8003 3 18.2004 3.54497 19.27C4.02433 20.2108 4.78924 20.9757 5.73005 21.455C6.79961 22 8.19974 22 11 22H13C15.8003 22 17.2004 22 18.27 21.455C19.2108 20.9757 19.9757 20.2108 20.455 19.27C21 18.2004 21 16.8003 21 14V11.6795C21 10.3261 21 9.64942 20.8337 9.02079C20.7399 8.66646 20.6077 8.32413 20.4397 7.9998M14 2.35469C14.1812 2.42683 14.3582 2.50959 14.5301 2.60263C14.9993 2.85653 15.4152 3.213 16.2469 3.92595L18.2063 5.60543C19.2339 6.48619 19.7477 6.92657 20.1167 7.46196C20.2357 7.6346 20.3435 7.81426 20.4397 7.9998M8 13H16M8 17H16M8 7H10V9H8V7Z" stroke="#131316" stroke-width="2" stroke-linecap="round" stroke-linejoin="round"/>
</svg>
