<svg width="24" height="24" viewBox="0 0 24 24" fill="none" xmlns="http://www.w3.org/2000/svg">
<path d="M17.7357 8.05443C17.3699 8 16.9332 8 16.0598 8H14.8628C13.2127 8 11.7214 7.01664 11.0714 5.5M17.7357 8.05443C19.9126 8.37828 21.6217 10.0874 21.9456 12.2643C22 12.6301 22 13.0668 22 13.9402V14.5C22 15.8945 22 16.5918 21.8618 17.1672C21.4229 18.9955 19.9955 20.4229 18.1672 20.8618C17.5918 21 16.8945 21 15.5 21H10C7.19974 21 5.79961 21 4.73005 20.455C3.78924 19.9757 3.02433 19.2108 2.54497 18.27C2 17.2004 2 15.8003 2 13V7.82103C2 5.15845 4.15845 3 6.82103 3H7.28008C8.93014 3 10.4214 3.98336 11.0714 5.5M17.7357 8.05443C18.5565 8.17654 19.3108 8.49559 19.9494 8.96239C19.8884 8.00163 19.7534 7.3162 19.4547 6.73005C18.9754 5.78924 18.2105 5.02433 17.2697 4.54497C16.2001 4 14.8 4 11.9997 4H9.97266C10.4392 4.40188 10.8189 4.91068 11.0714 5.5" stroke="#131316" stroke-width="2" stroke-linecap="round" stroke-linejoin="round"/>
</svg>
