<svg width="24" height="24" viewBox="0 0 24 24" fill="none" xmlns="http://www.w3.org/2000/svg">
<path d="M16 14C16.5523 14 17 13.5523 17 13C17 12.4477 16.5523 12 16 12V14ZM8 12C7.44772 12 7 12.4477 7 13C7 13.5523 7.44772 14 8 14V12ZM12 10C12.5523 10 13 9.55228 13 9C13 8.44772 12.5523 8 12 8V10ZM8 8C7.44772 8 7 8.44772 7 9C7 9.55228 7.44772 10 8 10V8ZM14.0022 18.9989L13.9987 17.9989C13.8446 17.9994 13.6928 18.0356 13.555 18.1045L14.0022 18.9989ZM18.27 18.455L17.816 17.564H17.816L18.27 18.455ZM20.455 16.27L19.564 15.816V15.816L20.455 16.27ZM20.455 4.73005L19.564 5.18404V5.18404L20.455 4.73005ZM18.27 2.54497L17.816 3.43597L17.816 3.43597L18.27 2.54497ZM5.73005 2.54497L6.18404 3.43597L5.73005 2.54497ZM3.54497 4.73005L4.43597 5.18404L4.43597 5.18404L3.54497 4.73005ZM3.54497 16.27L4.43597 15.816L4.43597 15.816L3.54497 16.27ZM5.73005 18.455L6.18404 17.564H6.18404L5.73005 18.455ZM8 18.952H9C9 18.4234 8.58858 17.9861 8.06095 17.9539L8 18.952ZM8 22H7C7 22.3466 7.17945 22.6684 7.47427 22.8507C7.76909 23.0329 8.13723 23.0494 8.44721 22.8944L8 22ZM16 12H8V14H16V12ZM12 8H8V10H12V8ZM14.0058 19.9989C16.091 19.9914 17.5374 19.9506 18.7239 19.346L17.816 17.564C17.1353 17.9108 16.2107 17.991 13.9987 17.9989L14.0058 19.9989ZM18.7239 19.346C19.8529 18.7708 20.7708 17.8529 21.346 16.7239L19.564 15.816C19.1805 16.5686 18.5686 17.1805 17.816 17.564L18.7239 19.346ZM21.346 16.7239C21.7023 16.0247 21.8554 15.261 21.9286 14.3654C22.0008 13.4815 22 12.3836 22 11H20C20 12.4166 19.9992 13.419 19.9352 14.2026C19.8721 14.9745 19.7527 15.4457 19.564 15.816L21.346 16.7239ZM22 11V10H20V11H22ZM22 10C22 8.61637 22.0008 7.51851 21.9286 6.63458C21.8554 5.73898 21.7023 4.9753 21.346 4.27606L19.564 5.18404C19.7527 5.55435 19.8721 6.02552 19.9352 6.79744C19.9992 7.58104 20 8.58337 20 10H22ZM21.346 4.27606C20.7708 3.14708 19.8529 2.2292 18.7239 1.65396L17.816 3.43597C18.5686 3.81947 19.1805 4.43139 19.564 5.18404L21.346 4.27606ZM18.7239 1.65396C18.0247 1.29768 17.261 1.14462 16.3654 1.07144C15.4815 0.999222 14.3836 1 13 1V3C14.4166 3 15.419 3.00078 16.2026 3.0648C16.9745 3.12787 17.4457 3.24729 17.816 3.43597L18.7239 1.65396ZM13 1H11V3H13V1ZM11 1C9.61637 1 8.51851 0.999222 7.63458 1.07144C6.73898 1.14462 5.9753 1.29768 5.27606 1.65396L6.18404 3.43597C6.55435 3.24729 7.02552 3.12787 7.79744 3.0648C8.58104 3.00078 9.58337 3 11 3V1ZM5.27606 1.65396C4.14709 2.2292 3.2292 3.14708 2.65396 4.27606L4.43597 5.18404C4.81947 4.43139 5.43139 3.81947 6.18404 3.43597L5.27606 1.65396ZM2.65396 4.27606C2.29768 4.9753 2.14462 5.73898 2.07144 6.63458C1.99922 7.51851 2 8.61637 2 10H4C4 8.58337 4.00078 7.58104 4.0648 6.79744C4.12787 6.02552 4.24729 5.55435 4.43597 5.18404L2.65396 4.27606ZM2 10V11H4V10H2ZM2 11C2 12.3836 1.99922 13.4815 2.07144 14.3654C2.14462 15.261 2.29768 16.0247 2.65396 16.7239L4.43597 15.816C4.24729 15.4457 4.12787 14.9745 4.0648 14.2026C4.00078 13.419 4 12.4166 4 11H2ZM2.65396 16.7239C3.2292 17.8529 4.14709 18.7708 5.27606 19.346L6.18404 17.564C5.43139 17.1805 4.81947 16.5686 4.43597 15.816L2.65396 16.7239ZM5.27606 19.346C6.05112 19.741 6.90835 19.8872 7.93905 19.9502L8.06095 17.9539C7.13059 17.8971 6.59651 17.7742 6.18404 17.564L5.27606 19.346ZM9 22V18.952H7V22H9ZM13.555 18.1045L7.55279 21.1056L8.44721 22.8944L14.4495 19.8933L13.555 18.1045Z" fill="#131316"/>
</svg>
