<svg width="183" height="48" viewBox="0 0 183 48" fill="none" xmlns="http://www.w3.org/2000/svg">
<path d="M12.8947 8.6C15.8147 8.6 18.2547 9.32 20.2547 10.68C22.2147 12.04 23.4547 13.96 23.9747 16.36L17.4947 17.68C17.2547 16.48 16.6947 15.56 15.8147 14.92C14.9347 14.28 13.9347 13.92 12.8147 13.92C11.7347 13.92 10.8547 14.2 10.2147 14.72C9.53469 15.24 9.21469 15.88 9.21469 16.64C9.21469 17.84 9.93469 18.56 11.3747 18.88L16.9347 20.12C21.8147 21.24 24.2947 23.84 24.2947 27.92C24.2947 30.68 23.2147 32.8 21.1347 34.32C19.0147 35.84 16.3747 36.6 13.2547 36.6C10.1347 36.6 7.45469 35.92 5.29469 34.48C3.13469 33.04 1.85469 31.04 1.53469 28.48L8.33469 27.16C8.97469 29.8 10.7347 31.12 13.6147 31.12C14.8147 31.12 15.7747 30.88 16.4947 30.36C17.2147 29.88 17.5747 29.2 17.5747 28.36C17.5747 27.72 17.3747 27.24 17.0147 26.84C16.6547 26.48 16.0147 26.2 15.0947 26L9.49469 24.8C4.69469 23.72 2.29469 21.12 2.29469 17.04C2.29469 14.48 3.25469 12.4 5.21469 10.88C7.13469 9.36 9.69469 8.6 12.8947 8.6ZM28.2341 9.2H41.4341C44.4341 9.2 46.8341 10.08 48.5941 11.76C50.3541 13.44 51.2741 15.68 51.2741 18.44C51.2741 21.28 50.3541 23.56 48.5141 25.24C46.6741 26.96 44.2341 27.8 41.1541 27.8H34.8341V36H28.2341V9.2ZM34.8341 22.28H40.6741C41.9541 22.28 42.9541 21.96 43.6741 21.28C44.3941 20.6 44.7941 19.68 44.7941 18.52C44.7941 17.44 44.3941 16.56 43.6741 15.88C42.9141 15.2 41.9141 14.84 40.6741 14.84H34.8341V22.28ZM68.5566 8.68C72.3966 8.68 75.6766 10.04 78.3566 12.72C81.0366 15.44 82.3966 18.72 82.3966 22.6C82.3966 26.52 81.0366 29.8 78.3566 32.48C75.6766 35.2 72.3966 36.52 68.5566 36.52C64.6366 36.52 61.3566 35.2 58.6766 32.48C55.9966 29.8 54.6766 26.52 54.6766 22.6C54.6766 18.72 55.9966 15.44 58.6766 12.72C61.3566 10.04 64.6366 8.68 68.5566 8.68ZM68.5566 33.52C71.5166 33.52 74.0366 32.48 76.1166 30.4C78.1566 28.32 79.1966 25.72 79.1966 22.6C79.1966 19.56 78.1566 16.96 76.1166 14.84C74.0366 12.72 71.5166 11.64 68.5566 11.64C65.5166 11.64 62.9966 12.72 60.9566 14.84C58.8766 16.96 57.8766 19.56 57.8766 22.6C57.8766 25.72 58.8766 28.32 60.9566 30.4C62.9966 32.48 65.5166 33.52 68.5566 33.52ZM111.466 36H103.506L95.4259 26.8H93.5059V36H86.9059V9.2H100.466C103.346 9.2 105.706 10.04 107.466 11.64C109.226 13.24 110.106 15.36 110.106 17.96C110.106 20.16 109.466 22 108.226 23.52C106.946 25.04 105.226 26 103.066 26.48L111.466 36ZM93.5059 21.28H99.7459C100.906 21.28 101.826 21 102.546 20.4C103.266 19.84 103.626 19.04 103.626 18.04C103.626 17.08 103.266 16.32 102.546 15.72C101.826 15.16 100.906 14.84 99.7459 14.84H93.5059V21.28ZM135.361 14.96H126.681V36H120.121V14.96H111.441V9.2H135.361V14.96ZM158.268 30.24V36H138.468V9.2H145.068V30.24H158.268ZM172.063 27.6V36H165.343V27.68L154.983 9.2H162.183L168.783 20.96L175.303 9.2H182.663L172.063 27.6Z" fill="#192126"/>
<path d="M68 26C68.5523 26 69 25.5523 69 25C69 24.4477 68.5523 24 68 24C67.4477 24 67 24.4477 67 25C67 25.5523 67.4477 26 68 26Z" stroke="#192126" stroke-width="2" stroke-linecap="round" stroke-linejoin="round"/>
<path d="M69.4102 23.59L72.0002 21" stroke="#192126" stroke-width="2" stroke-linecap="round" stroke-linejoin="round"/>
<path d="M62 22C62 20.6739 62.5268 19.4021 63.4645 18.4645C64.4021 17.5268 65.6739 17 67 17" stroke="#192126" stroke-width="2" stroke-linecap="round" stroke-linejoin="round"/>
</svg>
